<svg width="213" height="72" viewBox="0 0 213 72" fill="none" xmlns="http://www.w3.org/2000/svg">
<g clip-path="url(#clip0)">
<path d="M70.41 47.729C71.3501 47.7367 72.2755 47.4952 73.092 47.029C73.8958 46.5751 74.5811 45.9378 75.092 45.169L77.077 46.652C76.3227 47.6812 75.3431 48.5244 74.213 49.117C73.0415 49.7313 71.7357 50.045 70.413 50.03C69.3058 50.0373 68.2094 49.8117 67.195 49.368C65.2124 48.513 63.6375 46.9241 62.8 44.934C62.3715 43.9041 62.1508 42.7995 62.1508 41.684C62.1508 40.5685 62.3715 39.4639 62.8 38.434C63.6357 36.4423 65.2101 34.8514 67.193 33.995C68.2074 33.5513 69.3038 33.3257 70.411 33.333C71.7336 33.3182 73.0392 33.6315 74.211 34.245C75.3408 34.838 76.3204 35.6811 77.075 36.71L75.09 38.193C74.579 37.4245 73.8938 36.7875 73.09 36.334C72.2735 35.8678 71.3481 35.6263 70.408 35.634C69.6402 35.6286 68.8806 35.7922 68.183 36.113C67.5002 36.4253 66.8842 36.8667 66.369 37.413C65.8443 37.9717 65.4264 38.6217 65.136 39.331C64.5283 40.8387 64.5283 42.5233 65.136 44.031C65.4264 44.74 65.8444 45.3897 66.369 45.948C66.8845 46.4939 67.5004 46.9353 68.183 47.248C68.881 47.5698 69.6414 47.734 70.41 47.729V47.729Z" fill="white"/>
<path d="M92.181 40.882C91.977 41.5494 91.6564 42.1754 91.234 42.731C90.8094 43.2846 90.2876 43.7563 89.694 44.123C89.662 44.1547 89.6229 44.1784 89.58 44.192C89.537 44.2049 89.4978 44.2283 89.466 44.26L92.41 50.06H89.831L87.252 45.016C87.07 45.047 86.887 45.07 86.705 45.085C86.523 45.1 86.324 45.108 86.111 45.108H83.122V50.06H80.68V33.283H86.111C87.3728 33.2744 88.6126 33.6138 89.694 34.264C90.8999 35.0051 91.7865 36.1687 92.181 37.528C92.197 37.604 92.212 37.672 92.227 37.728C92.2453 37.7978 92.2684 37.8663 92.296 37.933V38.048C92.327 38.1281 92.3462 38.2123 92.353 38.298C92.361 38.39 92.372 38.481 92.387 38.572V38.6C92.402 38.6906 92.4097 38.7822 92.41 38.874V39.513C92.4098 39.6048 92.4021 39.6964 92.387 39.787V39.832C92.372 39.924 92.361 40.012 92.353 40.095C92.3438 40.1842 92.3247 40.2721 92.296 40.357V40.449C92.242 40.5887 92.2034 40.7339 92.181 40.882V40.882ZM86.408 42.959C86.8869 42.964 87.3601 42.8543 87.788 42.639C88.2013 42.4299 88.5698 42.1422 88.873 41.792C89.1809 41.435 89.4275 41.0295 89.603 40.592C89.9672 39.6942 89.9672 38.6898 89.603 37.792C89.4308 37.3528 89.1838 36.9468 88.873 36.592C88.5672 36.2478 88.1991 35.9645 87.788 35.757C87.3604 35.5408 86.8871 35.4307 86.408 35.436H83.144V42.967L86.408 42.959Z" fill="white"/>
<path d="M108.819 33.283V33.306L103.638 44.58V50.08H101.2V44.58L96.02 33.306H96.042L96.02 33.283H98.735L102.435 42.229L106.135 33.283H108.819Z" fill="white"/>
<path d="M121.6 41.7C121.709 41.7774 121.809 41.8655 121.9 41.963C121.991 42.063 122.074 42.156 122.15 42.248C122.498 42.6852 122.775 43.1741 122.972 43.697C123.172 44.2258 123.273 44.7867 123.272 45.352C123.274 45.4588 123.266 45.5656 123.249 45.671C123.211 46.4952 122.942 47.292 122.473 47.971C122.055 48.6018 121.492 49.1226 120.83 49.489C120.145 49.8657 119.374 50.0583 118.593 50.048H117.08C116.299 50.0583 115.528 49.8657 114.843 49.489C114.182 49.1251 113.619 48.6076 113.2 47.98C113.065 47.7749 112.943 47.5614 112.835 47.341L114.957 45.698C115.002 45.9833 115.099 46.258 115.243 46.508C115.385 46.7558 115.566 46.9792 115.779 47.17C116.221 47.5595 116.79 47.7731 117.379 47.77H118.293C118.889 47.7816 119.468 47.5673 119.913 47.17C120.359 46.7856 120.651 46.2528 120.735 45.67C120.735 45.6088 120.738 45.5477 120.746 45.487C120.753 45.4266 120.757 45.3658 120.757 45.305C120.76 44.984 120.698 44.6657 120.575 44.369C120.457 44.0857 120.287 43.8267 120.075 43.605C119.859 43.3819 119.604 43.2 119.323 43.068C119.037 42.9325 118.726 42.855 118.41 42.84H117.017C116.472 42.8288 115.935 42.7165 115.431 42.509C114.943 42.3078 114.491 42.0263 114.096 41.676C113.884 41.5254 113.7 41.3406 113.549 41.129C113.201 40.6915 112.924 40.2023 112.727 39.679C112.527 39.1505 112.426 38.59 112.427 38.025V37.705C112.49 36.8819 112.765 36.0893 113.227 35.405C113.644 34.7739 114.208 34.2533 114.871 33.888C115.555 33.5111 116.326 33.3185 117.107 33.329H118.59C119.375 33.3196 120.149 33.5121 120.838 33.888C121.505 34.2513 122.073 34.7721 122.493 35.405C122.539 35.482 122.588 35.565 122.641 35.657C122.694 35.749 122.741 35.831 122.79 35.907L120.712 37.528C120.581 36.9889 120.276 36.5078 119.845 36.159C119.418 35.7984 118.875 35.6038 118.316 35.611H117.4C117.1 35.61 116.802 35.6642 116.521 35.771C116.248 35.8719 115.997 36.0228 115.779 36.216C115.564 36.4088 115.383 36.6363 115.243 36.889C115.099 37.1434 115.003 37.4215 114.957 37.71C114.942 37.7699 114.935 37.8313 114.935 37.893V38.075C114.932 38.3961 114.994 38.7145 115.117 39.011C115.235 39.2947 115.404 39.5541 115.617 39.776C115.834 39.9987 116.089 40.1803 116.37 40.312C116.656 40.4481 116.967 40.5256 117.283 40.54H118.676C119.221 40.5521 119.758 40.6643 120.262 40.871C120.751 41.0714 121.203 41.3515 121.6 41.7V41.7Z" fill="white"/>
<path d="M126.871 33.306H137.551V35.657H133.421V50.011H131V35.657H126.87L126.871 33.306Z" fill="white"/>
<path d="M138.993 50.011L145.816 33.283L152.64 50.011H150.152L149.652 48.688H142.006L141.481 50.011H138.993ZM142.827 46.542H148.806L145.816 38.874L142.827 46.542Z" fill="white"/>
<path d="M158.689 47.66H165.512V50.06H156.247V33.306H158.689V47.66Z" fill="white"/>
<path d="M171.559 47.66H178.383V50.06H169.117V33.306H171.559V47.66Z" fill="white"/>
<path d="M181.989 33.306H184.431V50.034H181.989V33.306Z" fill="white"/>
<path d="M198.694 33.329L191.894 47.66H198.672V50.08H188.036V50.057L194.769 35.679H188.949V33.306H198.694L198.671 33.329H198.694Z" fill="white"/>
<path d="M204.719 47.592H212.159V49.992H202.3V33.329H212V35.679H204.72V41.339H211.27V43.621H204.72L204.719 47.592Z" fill="white"/>
<path d="M38.239 31.318L27.865 71.476L14.472 62.932L24.847 0L39.983 24.585L38.239 31.318Z" fill="white"/>
<path d="M9.543 32.532L5.969 57.5L3.957 56.219L0 27.181L9.543 32.532Z" fill="white"/>
<path d="M20.877 15.927L13.258 62.154L7.196 58.285L14.633 6.33099L20.877 15.927Z" fill="white"/>
<path d="M48.171 29.514L39.587 62.597L33.9 67.305L29.367 70.966L39.058 33.451L48.171 29.514Z" fill="white"/>
</g>
<defs>
<clipPath id="clip0">
<rect width="212.159" height="71.476" fill="white"/>
</clipPath>
</defs>
</svg>
